####
#
# OBJ File Generated by Meshlab
#
####
# Object bunny2.obj
#
# Vertices: 18
# Faces: 29
#
####
vn 2.081879 1.018504 0.839668
v 0.037553 0.106853 0.026303 0.749020 0.749020 0.749020
vn 1.170748 0.678366 3.935955
v -0.006621 0.090415 0.056880 0.749020 0.749020 0.749020
vn -1.010681 1.107303 -0.723252
v -0.062165 0.156668 -0.017838 0.749020 0.749020 0.749020
vn -0.539750 4.021830 3.832448
v -0.045852 0.120730 0.027665 0.749020 0.749020 0.749020
vn -2.917974 -0.005499 1.573758
v -0.077216 0.085595 0.037421 0.749020 0.749020 0.749020
vn -4.549836 -1.793798 -1.321628
v -0.054421 0.047837 -0.005919 0.749020 0.749020 0.749020
vn -0.718347 -1.136862 -2.562458
v -0.031714 0.035112 -0.030659 0.749020 0.749020 0.749020
vn 2.261889 0.370374 -1.594734
v 0.035359 0.087439 -0.017109 0.749020 0.749020 0.749020
vn 3.653183 2.316616 -2.991546
v -0.032822 0.123005 -0.005909 0.749020 0.749020 0.749020
vn 1.738459 -2.010959 -1.252387
v 0.012009 0.035962 -0.021736 0.749020 0.749020 0.749020
vn 0.222155 0.306454 -0.152170
v -0.021163 0.174919 -0.021977 0.749020 0.749020 0.749020
vn -2.569410 -0.928772 -0.887476
v -0.047522 0.033623 -0.012805 0.749020 0.749020 0.749020
vn 2.779471 -5.801676 1.649690
v -0.003695 0.038173 0.013047 0.749020 0.749020 0.749020
vn 0.855791 -3.428451 -0.321322
v -0.034692 0.033829 0.012439 0.749020 0.749020 0.749020
vn 1.361422 -5.590052 0.275910
v -0.028862 0.035397 0.017350 0.749020 0.749020 0.749020
vn 0.039506 -1.126685 0.056844
v 0.005250 0.039507 0.033271 0.749020 0.749020 0.749020
vn 2.070956 -1.833101 -0.115738
v -0.030985 0.038192 0.032390 0.749020 0.749020 0.749020
vn 0.211641 -1.875029 1.884692
v -0.028658 0.035083 0.050549 0.749020 0.749020 0.749020
# 18 vertices, 0 vertices normals

f 8//8 13//13 10//10
f 2//2 1//1 4//4
f 9//9 11//11 4//4
f 2//2 4//4 5//5
f 1//1 9//9 4//4
f 18//18 13//13 2//2
f 1//1 2//2 13//13
f 9//9 3//3 11//11
f 3//3 4//4 11//11
f 9//9 1//1 8//8
f 6//6 7//7 12//12
f 9//9 7//7 3//3
f 6//6 5//5 3//3
f 7//7 9//9 8//8
f 5//5 4//4 3//3
f 15//15 17//17 18//18
f 15//15 18//18 14//14
f 15//15 14//14 12//12
f 8//8 1//1 13//13
f 7//7 6//6 3//3
f 7//7 8//8 10//10
f 13//13 15//15 7//7
f 5//5 6//6 18//18
f 2//2 5//5 18//18
f 18//18 17//17 13//13
f 13//13 17//17 15//15
f 10//10 13//13 7//7
f 14//14 6//6 12//12
f 16//16 17//17 13//13
# 29 faces, 0 coords texture

# End of File
