####
#
# OBJ File Generated by Meshlab
#
####
# Object bunny3.obj
#
# Vertices: 14
# Faces: 23
#
####
vn -3.239678 1.554203 -3.124470
v -0.016254 0.035988 -0.022629
vn 2.392555 -1.000348 0.778564
v 0.036293 0.062586 0.031468
vn -0.411440 0.674611 0.641952
v -0.027965 0.165243 -0.007803
vn 2.271625 1.840610 0.511897
v 0.029771 0.105411 0.025526
vn -0.467109 3.432774 2.461948
v -0.019041 0.113997 0.031507
vn -0.579391 -0.434853 -4.405216
v -0.003576 0.058981 -0.023933
vn -3.978678 -0.067848 0.585420
v -0.059960 0.058957 0.006026
vn -2.160054 -1.571652 0.450835
v -0.057780 0.034385 0.001649
vn -1.175908 1.222947 0.550533
v -0.066212 0.123325 0.011735
vn 0.972590 1.848582 -2.865772
v -0.000921 0.103095 -0.020338
vn -1.587374 -1.595376 3.461070
v -0.029793 0.056060 0.044667
vn 0.740725 -4.195095 0.767099
v -0.005688 0.035842 0.012298
vn -0.099196 -0.236068 4.070406
v -0.009763 0.073233 0.054620
vn -0.547437 0.897597 0.854143
v -0.066120 0.159404 -0.026121
# 14 vertices, 0 vertices normals

f 6//6 2//2 12//12
f 7//7 11//11 5//5
f 7//7 6//6 1//1
f 7//7 5//5 9//9
f 2//2 13//13 12//12
f 6//6 1//1 12//12
f 11//11 13//13 5//5
f 11//11 8//8 12//12
f 8//8 6//6 12//12
f 6//6 9//9 10//10
f 8//8 6//6 1//1
f 14//14 9//9 3//3
f 8//8 7//7 1//1
f 13//13 11//11 12//12
f 4//4 2//2 10//10
f 13//13 4//4 5//5
f 5//5 4//4 10//10
f 9//9 5//5 10//10
f 2//2 6//6 10//10
f 7//7 8//8 12//12
f 7//7 8//8 11//11
f 4//4 13//13 2//2
f 7//7 9//9 6//6
# 23 faces, 0 coords texture

# End of File
