####
#
# OBJ File Generated by Meshlab
#
####
# Object capsule.obj
#
# Vertices: 30
# Faces: 50
#
####
vn 0.835999 2.114418 -3.405311
v 0.313154 0.512536 -1.350397
vn -1.571578 -2.855679 -4.248324
v -0.321041 -0.585358 -1.284685
vn -1.554648 3.407202 -3.938613
v -0.301837 0.708173 -1.192740
vn -2.782742 0.082537 -4.019290
v -0.662441 0.031205 -1.332717
vn 1.733976 0.953114 -0.597685
v 0.980334 0.092827 -0.944827
vn -4.178503 2.973608 -1.583890
v -0.830220 0.567686 -0.798965
vn 3.055133 -3.757117 -1.738429
v 0.602319 -0.827259 -0.812355
vn 0.732276 -1.606468 -3.320284
v 0.335347 -0.442858 -1.393143
vn -0.479273 4.907637 -1.422435
v -0.113941 1.033920 -0.771604
vn 2.004580 -1.153974 -0.447056
v 1.032671 -0.153484 -0.622104
vn 2.125792 1.171050 0.811733
v 0.974643 0.222287 0.801873
vn -0.795862 5.120595 1.757110
v -0.171758 0.990917 0.774636
vn -5.304162 -0.525621 -1.257760
v -1.025463 -0.063476 -0.670924
vn -3.268333 -3.753928 -1.555977
v -0.652531 -0.792234 -0.775073
vn 0.077169 -5.181795 -1.693581
v 0.044939 -1.003734 -0.788265
vn 0.906663 -5.297400 1.564593
v 0.171758 -0.990917 0.774636
vn 4.680449 3.609489 0.661713
v 0.771599 0.671829 0.557254
vn 3.409075 3.846393 -1.395981
v 0.688339 0.762684 -0.720543
vn -5.375146 0.397475 1.050053
v -1.023665 0.111105 0.602053
vn -4.603168 -3.274918 1.005977
v -0.770257 -0.669928 0.570637
vn 2.826318 -1.487488 0.608284
v 0.963336 -0.287389 0.685911
vn 2.065071 4.067776 2.120421
v 0.454661 0.901531 0.882455
vn -3.018846 3.634910 1.961602
v -0.641460 0.770299 0.878519
vn -1.899703 -4.481016 1.953543
v -0.377935 -0.934316 0.857778
vn -3.697144 1.595269 3.648087
v -0.727724 0.309053 1.170445
vn 3.209555 -3.436490 2.034899
v 0.679504 -0.738606 0.901303
vn 0.391691 -2.810529 4.623862
v 0.062009 -0.563344 1.355268
vn 1.524417 -0.952319 2.368230
v 0.705103 -0.073395 1.257728
vn -2.876130 -1.257611 3.862669
v -0.611777 -0.258412 1.337409
vn 0.241458 1.221394 4.056356
v 0.135973 0.324306 1.529430
# 30 vertices, 0 vertices normals

f 1//1 8//8 4//4
f 4//4 8//8 2//2
f 1//1 4//4 3//3
f 1//1 3//3 9//9
f 2//2 8//8 15//15
f 5//5 1//1 18//18
f 1//1 9//9 18//18
f 3//3 4//4 6//6
f 4//4 2//2 14//14
f 2//2 15//15 14//14
f 7//7 8//8 10//10
f 8//8 7//7 15//15
f 4//4 13//13 6//6
f 4//4 14//14 13//13
f 3//3 6//6 9//9
f 5//5 18//18 17//17
f 18//18 9//9 22//22
f 6//6 13//13 19//19
f 13//13 14//14 20//20
f 14//14 15//15 24//24
f 15//15 7//7 16//16
f 7//7 10//10 26//26
f 5//5 17//17 11//11
f 9//9 6//6 23//23
f 13//13 20//20 19//19
f 18//18 22//22 17//17
f 22//22 9//9 12//12
f 9//9 23//23 12//12
f 6//6 19//19 23//23
f 14//14 24//24 20//20
f 24//24 15//15 16//16
f 7//7 26//26 16//16
f 10//10 21//21 26//26
f 19//19 20//20 29//29
f 17//17 22//22 11//11
f 20//20 24//24 29//29
f 23//23 19//19 25//25
f 19//19 29//29 25//25
f 26//26 21//21 28//28
f 11//11 22//22 30//30
f 12//12 23//23 30//30
f 16//16 26//26 27//27
f 22//22 12//12 30//30
f 24//24 16//16 27//27
f 23//23 25//25 30//30
f 24//24 27//27 29//29
f 27//27 26//26 28//28
f 27//27 28//28 30//30
f 25//25 29//29 30//30
f 29//29 27//27 30//30
# 50 faces, 0 coords texture

# End of File
