####
#
# OBJ File Generated by Meshlab
#
####
# Object bunny3.obj
#
# Vertices: 13
# Faces: 19
#
####
vn -0.516077 -1.812871 3.416311
v -0.034303 0.050520 0.038286
vn 0.065162 0.648361 -0.085101
v -0.055530 0.149055 -0.001960
vn 1.762506 0.688371 1.865672
v 0.023780 0.095223 0.046347
vn 0.895351 3.349837 0.759139
v 0.002492 0.129836 0.024847
vn -2.109992 1.011294 2.503114
v -0.075729 0.103540 0.036071
vn -2.198885 -2.738228 1.463032
v -0.055353 0.042936 0.019135
vn -2.930876 -0.528517 -0.857232
v -0.088091 0.087742 0.004849
vn 0.952543 1.414960 -1.038630
v 0.035359 0.087439 -0.017109
vn -0.699180 2.805828 -3.519915
v -0.033715 0.111516 -0.018078
vn -2.567692 -2.744654 -4.318954
v -0.032492 0.057196 -0.012105
vn -0.425390 0.020758 -2.988641
v -0.017976 0.070614 -0.038444
vn 1.565915 -1.423851 -1.163586
v 0.003815 0.039024 -0.008083
vn -0.295881 -1.232185 -0.304510
v -0.045676 0.033704 0.006430
# 13 vertices, 0 vertices normals

f 5//5 1//1 3//3
f 4//4 9//9 5//5
f 3//3 4//4 5//5
f 9//9 2//2 5//5
f 1//1 5//5 7//7
f 8//8 4//4 3//3
f 6//6 7//7 10//10
f 11//11 10//10 9//9
f 5//5 2//2 7//7
f 13//13 1//1 6//6
f 2//2 9//9 7//7
f 8//8 9//9 4//4
f 11//11 9//9 8//8
f 10//10 7//7 9//9
f 12//12 13//13 10//10
f 12//12 3//3 1//1
f 11//11 12//12 10//10
f 11//11 3//3 12//12
f 6//6 1//1 7//7
# 19 faces, 0 coords texture

# End of File
